<?xml version="1.0" encoding="utf-8"?>
<!-- Generator: Adobe Illustrator 25.2.1, SVG Export Plug-In . SVG Version: 6.00 Build 0)  -->
<svg version="1.1" id="Layer_1" xmlns="http://www.w3.org/2000/svg" xmlns:xlink="http://www.w3.org/1999/xlink" x="0px" y="0px"
	 viewBox="0 0 100 100" style="enable-background:new 0 0 100 100;" xml:space="preserve">
<style type="text/css">
	.st0{display:none;fill:#F4EAE1;}
	.st1{display:none;fill:#686664;}
	.st2{display:none;}
	.st3{display:inline;}
</style>
<path class="st0" d="M50,100c27.6,0,50-22.4,50-50S77.6,0,50,0S0,22.4,0,50S22.4,100,50,100z"/>
<path class="st1" d="M50,87.7c20.8,0,37.7-16.9,37.7-37.7S70.8,12.3,50,12.3S12.3,29.2,12.3,50S29.2,87.7,50,87.7z"/>
<g>
	<path d="M32.2,14.8L33,14c0.6,0.6,1.4,0.8,2.5,0.4c0.9-0.4,1.3-0.8,1.1-1.4c-0.2-0.5-0.6-0.6-1.4-0.4l-1.3,0.3
		c-1.2,0.3-2,0-2.4-0.9c-0.4-1.1,0.2-2.1,1.8-2.7c1.3-0.5,2.5-0.5,3.3,0.4l-0.7,0.8c-0.6-0.6-1.3-0.7-2.3-0.3
		c-0.8,0.3-1.2,0.8-1,1.3c0.2,0.5,0.6,0.6,1.4,0.4l1.3-0.3c1.3-0.3,2.1-0.1,2.5,0.9c0.4,1.1-0.1,2.2-1.8,2.9
		C34.2,15.9,33,15.7,32.2,14.8z"/>
	<path d="M38,10.8c-0.4-2,0.6-3.5,2.7-3.9c2-0.4,3.6,0.5,4,2.5c0.4,2-0.6,3.5-2.7,3.9C40,13.8,38.4,12.8,38,10.8z M43.5,9.7
		c-0.3-1.4-1.3-2.1-2.6-1.8c-1.3,0.3-2,1.4-1.7,2.7c0.3,1.4,1.3,2.1,2.6,1.8C43.2,12.1,43.8,11,43.5,9.7z"/>
	<path d="M47.2,6.1l0.1,3.7c0,1,0.7,1.7,1.8,1.7c1.1,0,1.7-0.8,1.7-1.7l-0.1-3.7l1.2,0L52,9.8c0,1.5-1,2.6-2.9,2.7s-3-1-3-2.6
		L46,6.2L47.2,6.1z"/>
	<path d="M54.3,6.2l1.3,0.2l2.3,4.5c0.1,0.3,0.2,0.5,0.3,0.8l0,0c0-0.2,0.1-0.5,0.1-0.8L59,7l1.1,0.2l-1,6.1l-1.3-0.2l-2.4-4.6
		c-0.1-0.3-0.2-0.5-0.3-0.8l0,0c0,0.2-0.1,0.5-0.1,0.8l-0.7,4l-1.1-0.2L54.3,6.2z"/>
	<path d="M62.6,7.8l2.7,1c1.9,0.7,2.7,2.2,2.1,4c-0.7,1.8-2.4,2.5-4.2,1.8l-2.7-1L62.6,7.8z M63.4,13.8c1.3,0.5,2.3-0.1,2.8-1.4
		c0.5-1.2,0-2.3-1.3-2.8l-1.5-0.5l-1.5,4.1L63.4,13.8z"/>
	<path d="M70.7,14.7c1.2-1.6,3-1.9,4.7-0.7c1.7,1.2,2.1,3,0.9,4.7c-1.2,1.6-3,1.9-4.7,0.7C70,18.2,69.6,16.3,70.7,14.7z M75.3,17.9
		c0.8-1.2,0.7-2.4-0.4-3.2c-1.1-0.8-2.3-0.5-3.1,0.6c-0.8,1.2-0.7,2.4,0.4,3.2C73.3,19.4,74.5,19.1,75.3,17.9z"/>
	<path d="M79.8,19l-1.2,1.2l2.5,2.5l-0.7,0.6l-2.5-2.5L76,22.7l-0.8-0.8l4.4-4.4l3.4,3.5l-0.7,0.7L79.8,19z"/>
	<path d="M84.2,23.9l-1.4,1l2.1,2.9l-0.7,0.5l-2.1-2.9L79.9,27l-0.7-1l5-3.7l2.9,3.9l-0.7,0.5L84.2,23.9z"/>
	<path d="M85.1,32l0.8,0.8c-0.6,0.6-0.8,1.4-0.4,2.5c0.4,0.9,0.8,1.3,1.4,1.1c0.5-0.2,0.6-0.6,0.4-1.4L87,33.6
		c-0.3-1.2-0.1-2,0.9-2.4c1-0.4,2.1,0.2,2.7,1.7c0.6,1.3,0.5,2.5-0.3,3.3l-0.8-0.7c0.6-0.6,0.7-1.3,0.3-2.3c-0.3-0.8-0.8-1.2-1.3-1
		c-0.5,0.2-0.6,0.6-0.4,1.4l0.3,1.3c0.3,1.3,0.1,2.1-0.9,2.5c-1.1,0.5-2.2-0.1-2.9-1.8C84,34,84.2,32.8,85.1,32z"/>
	<path d="M89.1,37.7c2-0.4,3.5,0.6,4,2.6c0.4,2-0.5,3.6-2.5,4.1c-2,0.4-3.5-0.6-4-2.6C86.2,39.8,87.1,38.2,89.1,37.7z M90.3,43.2
		c1.4-0.3,2.1-1.3,1.8-2.6c-0.3-1.3-1.4-1.9-2.8-1.6c-1.4,0.3-2.1,1.3-1.8,2.7C87.8,42.9,88.9,43.6,90.3,43.2z"/>
	<path d="M93.8,46.9L90.1,47c-1,0-1.7,0.7-1.7,1.8c0,1.1,0.8,1.7,1.8,1.7l3.7-0.1l0,1.2l-3.8,0.1c-1.5,0-2.6-1-2.7-2.9s1-3,2.5-3
		l3.8-0.1L93.8,46.9z"/>
	<path d="M93.8,54l-0.2,1.3l-4.5,2.3c-0.3,0.1-0.5,0.2-0.8,0.3l0,0c0.2,0,0.5,0.1,0.8,0.1l4,0.6l-0.2,1.1l-6.1-1l0.2-1.3l4.6-2.4
		c0.3-0.1,0.5-0.2,0.8-0.3l0,0c-0.2,0-0.5-0.1-0.8-0.1l-4-0.6l0.2-1.1L93.8,54z"/>
	<path d="M92.3,62.3l-1,2.7c-0.7,1.9-2.2,2.7-4,2.1c-1.8-0.6-2.5-2.3-1.8-4.2l1-2.7L92.3,62.3z M86.3,63.1c-0.5,1.3,0.1,2.3,1.4,2.8
		c1.2,0.5,2.3,0,2.8-1.3l0.5-1.5l-4.1-1.5L86.3,63.1z"/>
	<path d="M85.4,70.5c1.6,1.1,1.9,3,0.7,4.7c-1.2,1.7-3,2.1-4.7,0.9c-1.6-1.1-1.9-3-0.7-4.7C82,69.7,83.8,69.4,85.4,70.5z M82.2,75.1
		c1.2,0.8,2.4,0.6,3.2-0.5c0.8-1.1,0.5-2.3-0.7-3.1c-1.2-0.8-2.4-0.6-3.2,0.5C80.8,73.1,81.1,74.3,82.2,75.1z"/>
	<path d="M81.2,79.5L80,78.3l-2.5,2.5l-0.7-0.6l2.5-2.5l-1.9-1.9l0.8-0.9l4.4,4.4l-3.4,3.5l-0.7-0.7L81.2,79.5z"/>
	<path d="M76.3,84l-1-1.4l-2.8,2.1L71.9,84l2.8-2.1l-1.6-2.1l1-0.7l3.7,5l-3.9,2.9l-0.5-0.7L76.3,84z"/>
	<path d="M68.2,85l-0.7,0.8c-0.6-0.6-1.4-0.8-2.5-0.4c-0.9,0.4-1.3,0.9-1.1,1.5c0.2,0.5,0.7,0.6,1.4,0.4l1.3-0.4
		c1.2-0.3,2-0.1,2.4,0.9c0.4,1-0.2,2.1-1.7,2.7c-1.3,0.6-2.5,0.5-3.3-0.3l0.7-0.8c0.6,0.6,1.3,0.7,2.3,0.3c0.8-0.4,1.2-0.8,1-1.3
		c-0.2-0.5-0.6-0.6-1.4-0.4l-1.3,0.3c-1.3,0.3-2.1,0.1-2.5-0.9c-0.5-1.1,0.1-2.2,1.8-2.9C66.2,83.9,67.5,84.1,68.2,85z"/>
	<path d="M62.5,89c0.4,2-0.6,3.5-2.6,4c-2,0.5-3.6-0.5-4.1-2.4s0.6-3.5,2.6-4C60.4,86.1,62,87.1,62.5,89z M57,90.3
		c0.3,1.4,1.3,2.1,2.7,1.8c1.3-0.3,1.9-1.4,1.6-2.8c-0.3-1.4-1.3-2.1-2.7-1.8C57.3,87.8,56.7,88.9,57,90.3z"/>
	<path d="M53.4,93.8l-0.1-3.7c0-1-0.7-1.7-1.8-1.6c-1.1,0-1.7,0.8-1.7,1.8l0.1,3.7l-1.2,0l-0.1-3.8c-0.1-1.5,1-2.7,2.9-2.7
		c1.9-0.1,3,1,3,2.5l0.1,3.8L53.4,93.8z"/>
	<path d="M46.3,93.9l-1.4-0.2l-2.4-4.5c-0.1-0.3-0.2-0.5-0.3-0.8l0,0c0,0.2-0.1,0.5-0.1,0.8l-0.6,4L40.4,93l0.9-6.1l1.3,0.2l2.4,4.6
		c0.1,0.3,0.2,0.5,0.3,0.8l0,0c0-0.2,0.1-0.5,0.1-0.8l0.6-4l1.1,0.2L46.3,93.9z"/>
	<path d="M37.9,92.3l-2.7-1c-1.9-0.7-2.7-2.2-2.1-4c0.6-1.8,2.3-2.5,4.2-1.9l2.7,1L37.9,92.3z M37.1,86.4c-1.3-0.5-2.3,0.2-2.8,1.4
		s0.1,2.3,1.3,2.7l1.5,0.5l1.5-4.1L37.1,86.4z"/>
	<path d="M29.7,85.6c-1.1,1.6-3,1.9-4.7,0.8c-1.7-1.2-2.1-3-1-4.6s3-1.9,4.7-0.8C30.5,82.1,30.8,83.9,29.7,85.6z M25.1,82.4
		c-0.8,1.2-0.6,2.4,0.5,3.2c1.1,0.8,2.3,0.5,3.1-0.7c0.8-1.2,0.6-2.4-0.5-3.2C27.1,80.9,25.9,81.2,25.1,82.4z"/>
	<path d="M20.6,81.4l1.2-1.2l-2.5-2.5l0.6-0.7l2.5,2.5l1.9-1.9l0.9,0.8l-4.3,4.4l-3.5-3.4l0.6-0.7L20.6,81.4z"/>
	<path d="M16.2,76.5l1.4-1l-2.1-2.8l0.7-0.6l2.1,2.8l2.1-1.6l0.7,1l-5,3.7l-2.9-3.9l0.7-0.6L16.2,76.5z"/>
	<path d="M15.1,68.5l-0.8-0.7c0.6-0.6,0.8-1.4,0.4-2.5c-0.4-0.9-0.9-1.3-1.5-1c-0.5,0.2-0.6,0.7-0.4,1.4l0.4,1.3
		c0.3,1.2,0.1,2-0.9,2.4c-1,0.5-2.1-0.2-2.7-1.7C9,66.3,9,65.1,9.9,64.3l0.8,0.7c-0.6,0.6-0.7,1.3-0.3,2.3c0.4,0.8,0.9,1.2,1.4,1
		c0.5-0.2,0.6-0.6,0.4-1.4l-0.3-1.3c-0.3-1.3-0.2-2.1,0.9-2.5c1.1-0.5,2.2,0.1,2.9,1.8C16.2,66.4,16,67.7,15.1,68.5z"/>
	<path d="M11.1,62.7c-2,0.5-3.5-0.6-4-2.6c-0.5-2,0.5-3.6,2.4-4.1c2-0.5,3.5,0.6,4,2.6C14,60.7,13,62.3,11.1,62.7z M9.8,57.3
		c-1.4,0.3-2.1,1.4-1.8,2.7c0.3,1.3,1.4,1.9,2.8,1.6c1.4-0.3,2.1-1.4,1.8-2.7C12.2,57.5,11.2,56.9,9.8,57.3z"/>
	<path d="M6.2,53.7l3.7-0.2c1,0,1.7-0.7,1.6-1.8c0-1.1-0.8-1.7-1.8-1.7L6,50.2L6,49l3.8-0.2c1.5-0.1,2.7,1,2.7,2.8
		c0.1,1.9-0.9,3-2.5,3.1l-3.8,0.2L6.2,53.7z"/>
	<path d="M6.1,46.5l0.2-1.3l4.5-2.4c0.3-0.1,0.5-0.2,0.8-0.3l0,0c-0.2,0-0.5-0.1-0.8-0.1l-4-0.6L7,40.7l6.1,0.9l-0.2,1.3l-4.6,2.5
		c-0.3,0.1-0.5,0.2-0.8,0.3l0,0c0.2,0,0.5,0.1,0.8,0.1l4,0.6l-0.2,1.1L6.1,46.5z"/>
	<path d="M7.6,38.2l0.9-2.7c0.7-1.9,2.2-2.8,4-2.1c1.8,0.6,2.5,2.3,1.9,4.2l-0.9,2.7L7.6,38.2z M13.5,37.3c0.4-1.3-0.2-2.3-1.4-2.8
		c-1.2-0.4-2.3,0.1-2.7,1.3l-0.5,1.5l4.1,1.4L13.5,37.3z"/>
	<path d="M14.3,29.9c-1.7-1.1-1.9-3-0.8-4.7c1.2-1.7,3-2.1,4.6-1c1.7,1.1,1.9,3,0.8,4.7C17.8,30.6,16,31,14.3,29.9z M17.5,25.3
		c-1.2-0.8-2.4-0.6-3.2,0.5c-0.8,1.1-0.5,2.3,0.7,3.1c1.2,0.8,2.4,0.6,3.2-0.5C18.9,27.3,18.7,26.1,17.5,25.3z"/>
	<path d="M18.4,20.8l1.2,1.2l2.5-2.5l0.7,0.6l-2.5,2.5l1.9,1.9l-0.8,0.9L16.9,21l3.4-3.5l0.7,0.6L18.4,20.8z"/>
	<path d="M23.3,16.3l1,1.4l2.8-2.1l0.6,0.7l-2.8,2.1l1.6,2.1l-1,0.7l-3.7-5l3.9-2.9l0.6,0.7L23.3,16.3z"/>
</g>
<g class="st2">
	<path class="st3" d="M30.4,15.5l0.8-1c0.7,0.7,1.7,0.9,2.9,0.3c1-0.4,1.5-1,1.2-1.7c-0.3-0.6-0.8-0.7-1.7-0.4l-1.5,0.4
		c-1.3,0.4-2.3,0.1-2.8-1c-0.5-1.2,0.2-2.4,1.9-3.2C32.7,8.4,34,8.4,35,9.4l-0.7,1c-0.7-0.6-1.5-0.8-2.6-0.3c-0.9,0.4-1.3,1-1.1,1.6
		c0.2,0.5,0.7,0.6,1.6,0.4l1.4-0.4c1.4-0.4,2.4-0.2,2.9,0.9c0.6,1.2-0.1,2.5-1.9,3.4C32.7,16.7,31.3,16.5,30.4,15.5z"/>
	<path class="st3" d="M38,10.3c-0.4-2.2,0.8-4,3.1-4.4c2.3-0.5,4.1,0.7,4.6,2.9c0.4,2.2-0.8,4-3.1,4.4C40.3,13.7,38.5,12.5,38,10.3z
		 M44.3,9.1c-0.3-1.6-1.5-2.4-3-2.1s-2.3,1.5-1.9,3.1c0.3,1.6,1.5,2.4,3,2.1C43.9,11.9,44.7,10.7,44.3,9.1z"/>
	<path class="st3" d="M50.1,5.2l-0.2,4.2c-0.1,1.1,0.6,2,1.9,2c1.3,0.1,2-0.7,2.1-1.9l0.2-4.2l1.4,0.1l-0.2,4.3
		c-0.1,1.8-1.4,2.9-3.5,2.8c-2.1-0.1-3.3-1.4-3.2-3.2L48.8,5L50.1,5.2z"/>
	<path class="st3" d="M59.6,6.1l1.5,0.4l2,5.5c0.1,0.3,0.2,0.6,0.2,0.9l0,0c0.1-0.3,0.2-0.5,0.3-0.9l1.3-4.4L66,8l-2,6.8l-1.4-0.4
		l-2-5.6c-0.1-0.3-0.2-0.6-0.2-0.9l0,0c-0.1,0.3-0.2,0.5-0.2,0.9l-1.3,4.5l-1.2-0.4L59.6,6.1z"/>
	<path class="st3" d="M70.1,9.8l2.8,1.7c2,1.2,2.6,3.1,1.5,4.9c-1.1,1.9-3.2,2.3-5.1,1.2l-2.8-1.7L70.1,9.8z M69.7,16.7
		c1.3,0.8,2.6,0.3,3.4-1s0.4-2.6-0.9-3.4l-1.5-0.9l-2.6,4.3L69.7,16.7z"/>
	<path class="st3" d="M79.6,21c1.8-1.4,3.9-1.2,5.4,0.7c1.5,1.8,1.3,4-0.4,5.4c-1.8,1.4-3.9,1.2-5.4-0.7
		C77.7,24.6,77.8,22.4,79.6,21z M83.6,26c1.3-1,1.5-2.4,0.5-3.6s-2.4-1.3-3.7-0.3c-1.3,1-1.5,2.4-0.5,3.6C81,26.9,82.4,27,83.6,26z"
		/>
	<path class="st3" d="M88.8,29.8l-1.7,0.9l1.8,3.6L88,34.8l-1.8-3.6l-2.7,1.3l-0.6-1.2l6.4-3.1l2.5,5l-1,0.5L88.8,29.8z"/>
	<path class="st3" d="M92.1,38.1l-1.9,0.5l1,3.9l-1,0.3l-1-3.9l-3,0.7l-0.3-1.3l6.9-1.7l1.4,5.4l-1,0.3L92.1,38.1z"/>
	<path class="st3" d="M89.7,49.4l0.4,1.2c-0.9,0.3-1.6,1-1.7,2.4c-0.1,1.1,0.2,1.8,0.9,1.8c0.7,0,0.9-0.4,1.1-1.3l0.3-1.5
		c0.3-1.3,1-2,2.2-2c1.3,0.1,2,1.3,1.9,3.2c-0.1,1.6-0.8,2.8-2,3.1l-0.5-1.1c0.9-0.3,1.4-1,1.5-2.2c0.1-1-0.2-1.7-0.8-1.7
		c-0.6,0-0.9,0.3-1.1,1.2L91.6,54c-0.3,1.5-1,2.2-2.2,2.1c-1.3-0.1-2.2-1.3-2-3.3C87.5,50.9,88.4,49.8,89.7,49.4z"/>
	<path class="st3" d="M90.5,58.6c2.2,0.7,3.1,2.6,2.4,4.9s-2.6,3.3-4.8,2.6s-3.1-2.6-2.4-4.9C86.5,59,88.4,58,90.5,58.6z M88.6,64.8
		c1.6,0.5,2.8-0.1,3.3-1.6s-0.2-2.7-1.8-3.2c-1.5-0.5-2.8,0.1-3.3,1.6C86.3,63,87,64.3,88.6,64.8z"/>
	<path class="st3" d="M89.3,71.7l-3.6-2.2c-1-0.6-2-0.4-2.7,0.7s-0.4,2.1,0.6,2.7l3.6,2.2l-0.7,1.2L82.8,74
		c-1.5-0.9-1.9-2.6-0.8-4.4s2.8-2.2,4.3-1.3l3.7,2.2L89.3,71.7z"/>
	<path class="st3" d="M83.9,79.5l-1.1,1.1L77,79.7c-0.3-0.1-0.6-0.1-0.9-0.3l0,0c0.2,0.2,0.4,0.4,0.7,0.6l3.2,3.3l-0.9,0.9l-5-5.1
		l1.1-1L81,79c0.3,0.1,0.6,0.1,0.9,0.3l0,0c-0.2-0.2-0.4-0.4-0.6-0.6L78,75.3l0.9-0.9L83.9,79.5z"/>
	<path class="st3" d="M75.5,86.9l-2.8,1.7c-2,1.2-3.9,0.8-5-1.1s-0.5-3.9,1.4-5.1l2.8-1.7L75.5,86.9z M69.7,83.4
		c-1.3,0.8-1.6,2.2-0.8,3.5c0.8,1.3,2.1,1.6,3.4,0.8l1.5-0.9l-2.6-4.3L69.7,83.4z"/>
	<path class="st3" d="M61.1,89.9c0.4,2.3-0.9,4-3.2,4.4s-4.1-0.8-4.5-3c-0.4-2.3,0.9-4,3.2-4.4C58.9,86.5,60.7,87.7,61.1,89.9z
		 M54.8,91c0.3,1.6,1.4,2.5,2.9,2.2s2.3-1.5,2-3.1s-1.4-2.5-2.9-2.2C55.3,88.3,54.5,89.4,54.8,91z"/>
	<path class="st3" d="M49,93.7l0.1-1.9l-4-0.2v-1l4,0.2l0.1-3l1.4,0.1L50.3,95l-5.6-0.3l0.1-1.1L49,93.7z"/>
	<path class="st3" d="M40.1,92.6l0.5-1.9l-3.9-1l0.3-1l3.9,1l0.8-3L43,87l-1.8,7l-5.4-1.4l0.3-1L40.1,92.6z"/>
	<path class="st3" d="M31.4,85.1l-1.2-0.2c0.2-0.9-0.1-1.9-1.2-2.6c-0.9-0.6-1.6-0.7-2-0.1s-0.1,1,0.5,1.6l1.2,1
		c1,0.9,1.3,1.8,0.7,2.9c-0.7,1.1-2.1,1.1-3.7,0.1c-1.4-0.9-2-2-1.8-3.3l1.2,0.1c-0.2,0.9,0.2,1.7,1.2,2.4c0.9,0.6,1.6,0.6,1.9,0.1
		s0.2-0.9-0.5-1.5l-1.1-1c-1.1-1-1.5-1.9-0.8-2.9c0.7-1.1,2.1-1.3,3.9-0.1C31.1,82.4,31.7,83.8,31.4,85.1z"/>
	<path class="st3" d="M22.9,81.4c-1.7,1.6-3.8,1.5-5.4-0.2s-1.7-3.8,0-5.4s3.8-1.5,5.4,0.2C24.6,77.6,24.6,79.8,22.9,81.4z
		 M18.5,76.7c-1.2,1.1-1.3,2.5-0.2,3.6c1.1,1.1,2.5,1.1,3.7,0s1.3-2.5,0.2-3.7C21.1,75.6,19.7,75.6,18.5,76.7z"/>
	<path class="st3" d="M12.1,74l3.7-2.1c1-0.6,1.3-1.6,0.7-2.7s-1.7-1.3-2.7-0.8l-3.7,2.1l-0.7-1.2l3.7-2.1c1.5-0.9,3.2-0.4,4.3,1.4
		c1.1,1.9,0.6,3.5-0.9,4.4l-3.7,2.1L12.1,74z"/>
	<path class="st3" d="M7.8,65.4l-0.4-1.5l3.6-4.6c0.2-0.3,0.4-0.5,0.7-0.7l0,0c-0.3,0.1-0.5,0.2-0.9,0.3l-4.4,1.3L6,58.9l6.8-1.9
		l0.4,1.4l-3.6,4.7c-0.2,0.3-0.4,0.5-0.7,0.7l0,0c0.3-0.1,0.5-0.2,0.9-0.3l4.5-1.3l0.3,1.2L7.8,65.4z"/>
	<path class="st3" d="M5.3,54.6l-0.1-3.3c-0.1-2.3,1.2-3.8,3.4-3.9c2.2-0.1,3.7,1.4,3.7,3.7l0.1,3.3L5.3,54.6z M11.3,51.2
		c0-1.5-1.1-2.4-2.6-2.4s-2.4,1-2.4,2.6l0.1,1.8l5-0.2L11.3,51.2z"/>
	<path class="st3" d="M9.7,40.5c-2.2-0.7-3.1-2.7-2.3-4.9s2.6-3.2,4.8-2.5s3.1,2.7,2.3,4.9C13.7,40.2,11.8,41.2,9.7,40.5z
		 M11.7,34.4c-1.5-0.5-2.8,0.1-3.3,1.5c-0.5,1.5,0.2,2.7,1.7,3.2s2.8-0.1,3.3-1.5S13.3,35,11.7,34.4z"/>
	<path class="st3" d="M12.1,28.1l1.7,1l2.1-3.4l0.9,0.6l-2.1,3.4l2.6,1.6l-0.7,1.2l-6-3.7l2.9-4.8l0.9,0.6L12.1,28.1z"/>
	<path class="st3" d="M17.4,20.8l1.4,1.3l2.8-2.9l0.8,0.7l-2.8,2.9l2.2,2.1l-0.9,1L15.7,21l3.8-4.1l0.8,0.7L17.4,20.8z"/>
</g>
</svg>
